<svg xmlns="http://www.w3.org/2000/svg" viewBox="0 0 424 510">
  <style>
    .cow{fill:#939;}
    .comicsans{fill:#000;}
  </style>
  <path d="M400 320.5c-20.1-9.9-9.9-41.2-11.2-57.9-1-12.5-3.3-15-14.4-19.1-4.8-1.7-12.9.8-13.5-7-.4-5.1 5.7-8.1 9.6-9.3 25.7-8.1 34.3 23.4 34.3 41.5 0 8.5-3.6 24.8-.6 32.6 2.4 6.3 15.6 8.6 17.6 17.4 2.4 10.8-11.7 13-15.2 22-3.2 8.2 1.1 19.9-.2 28.6-1.6 11.4-6.8 25.7-16.9 32.5-6 4-21.1 8-25.8.2-8.5-14.2 13.5-11.4 18.5-15.8 7.4-6.5 8.4-20.7 8.1-29.8-.4-14.7-1.2-23.7 9.7-35.9zM30.6 330.9c9.9 18.1-6.1 46.5 16.6 58.4 4.4 2.3 8.9-1.9 12.8 3.3 3.2 4.4.2 9.9-3.4 12.3-7.5 5-20.7-1.1-26.1-6.2-9-8.5-13.4-23.5-13.8-35.5-.3-9.9 3.5-18.1-2.5-26.9-6.1-9-16.8-9.2-9.9-21.3 3.9-6.8 12.9-8.5 15.1-14.7 3.1-8.6-.9-24.8-.7-34 .4-16.7 11.8-50.6 36.6-38 18.3 9.3-.7 12.6-7.9 15.5-9.8 4-11.6 8.5-12.5 18.9-1.4 16.8 9 48-11.2 57.9 2.6 3.2 4.9 6.6 6.9 10.3 2.6 4.9-2.3-4.2 0 0z" class="comicsans"/>
  <path d="M304.3 376.1c0-45.3-56.4-36.4-86-36.4-27.2 0-79.4-10-94.8 19.7-6.9 13.4-4.9 35-4.1 49.7 1.3 22.3 14.5 37.1 37.3 38.7 31.6 2.2 64.2 0 96 0 18.6 0 37.6-.6 47.5-19.7 7.6-14.7 4.1-36 4.1-52zm-19.2 31.2c0 38.4-49.9 13.3-74.1 13.3-22.9 0-60.1 22.6-71.6-4.6-5.1-12.1-2.4-20.4-1.6-33.3 1.3-19.2 1.6-27.3 20.6-28.5 31.1-2 64.6-.8 95.8-.8 15.4 0 21.5-2.4 30.1 13.5 7.2 13.3.8 25.8.8 40.4z" class="cow"/>
  <path d="M174.3 367.1c-5.1 0-11.7 2.4-14.6 6.9-1.8 3-1.8 7.3-1.9 10.6-.2 9.9 1.9 17.9 13.1 19.9 10.5 1.9 20.8-5.6 22.1-16.3 1.3-11-7.5-21.1-18.7-21.1zm94.1-138.4c-1.9 3.9-4.4 8 0 11.7 4.4 3.6 14.1-9.6 20.5-5.5s.5 6.9 3.1 11.6c2.6 4.7 11.1 5.3 14.4 4 3.3-1.4 3.6-8.2 3-12.1-.6-3.9-2.5-9.1-5.3-13.2s-4.1-4.7-12.8-5.3c-8.7-.6-21 5-22.9 8.8z" class="cow"/>
  <path d="M363.2 103.3c-11.6 14.6-9.1 33.3-26.7 34.2-3.3-25.4 3.2-35.3-7.5-46.7-13.8-14.8-41.4-17.1-75.7-3C218 102.4 185.5 104 192.4 58c2.8-18.3 25.5-55 8.3-56.1-17.8-1.1-38.9 18.2-46.5 47.8-6 23.2-17.9 33.5-31.5 34.8-22.2 2.1-30.9 24.7-34 49.6-19 0-16.2-18.1-28-32.1-13.6-16.2-30.6 71.1 27.8 86.9.2 3 .3 18.5.5 20.6 2.1 26.3.2 113.6.2 137.1s-1.7 81.8 0 107.5c2.5 36.9 34.3 54 62.6 54h106.3c25.6 0 66.2-11.2 76.4-42.4 4.4-13.4 3.6-45.7 3.6-59.4 0-15.2-.1-24.6-.7-46.5-.6-19.9.7-125.9.8-164.7 55.1-19.3 38.4-108.8 25-91.8zm-42.3 138.6c.8 17.6-.2 32.7-19.6 38.1-22.1 6.1-45.2-9.3-47.9-32-2.7-22.4 15.2-42.7 37.8-42.7 23.9 0 28.8 16.4 29.7 36.6zm-26.5 228.5c-53.4-5.6-107.9-7.6-163.1-.7-31.1 3.9-29.2-28.7-29.2-52.4 0-34.7 3.4-79.5 3.4-114.2 0-6.2-.8-19.4-1.7-36.2 4 4.4 9.9 7.6 18.2 9.2 21.1 3.8 41.7-11.3 44.3-32.6 2.7-22.2-15-42.4-37.5-42.4-8.9 0-20.3 3.7-26.7 10.7-.2-46.9 3.8-94.5 22.3-98.6 26.9-6.1 63.3 21.6 90.6 21.6 27.4 0 69.3-23.5 78.7 2.5 9.1 25.1-94.2 7.9-92.6 108 1.3 84.1 110.8 67.3 117.7 105.8 4.6 25.1 18.5 123.8-24.4 119.3zM106.9 233.3c.2-4.8.2-10.5 5.3-14.8 5.2-4.2 9.6-5 16.6-5.3 7-.2 18.2 4.1 19.9 9.1 1.8 5.1.4 9.3-4.4 13-4.8 3.7-11.5-4.7-18-2.5s-3.3 13.2-11.6 13.6c-8.3.5-8-8.3-7.8-13.1z" class="cow"/>
  <path d="M270.3 386.9c-.4-8.9-2.6-16.1-13.1-16.1-9.9 0-17.8 8.9-16.6 18.7 1.2 10 11.3 16.8 21 14.1 8.6-2.3 9-9 8.7-16.7z" class="cow"/>
</svg>
